<svg xmlns="http://www.w3.org/2000/svg" id="complain"  viewBox="0 0 58.787 58.765">
    <defs>
        <style>
            .cls-1{fill:#f4f4f4}.cls-2{fill:#e8e8e8}.cls-3{fill:url(#linear-gradient)}
        </style>
        <linearGradient id="linear-gradient" x1=".677" x2="-.333" y1="-.098" y2=".668" gradientUnits="objectBoundingBox">
            <stop offset="0" stop-color="#be3f45" stop-opacity="0"/>
            <stop offset="1" stop-color="#be3f45"/>
        </linearGradient>
    </defs>
    <path id="Caminho_7845" d="M50.209 58.862H8.578a8.567 8.567 0 0 1-7.662-12.4L21.731 4.833a8.567 8.567 0 0 1 15.325 0l20.815 41.631a8.567 8.567 0 0 1-7.662 12.398z" class="cls-1" data-name="Caminho 7845" transform="translate(0 -.097)"/>
    <path id="Caminho_7846" d="M73.623 65.267L52.808 23.636a6.261 6.261 0 0 0-11.2 0L20.792 65.267a6.261 6.261 0 0 0 5.6 9.062h41.631a6.261 6.261 0 0 0 5.6-9.062zm-2.235 4.88a3.931 3.931 0 0 1-3.365 1.876H26.392a3.956 3.956 0 0 1-3.538-5.723l20.815-41.633a3.956 3.956 0 0 1 7.076 0L71.561 66.3a3.93 3.93 0 0 1-.173 3.847z" class="cls-2" data-name="Caminho 7846" transform="translate(-17.814 -17.87)"/>
    <path id="Caminho_7849" d="M228.154 171.428a2.6 2.6 0 0 1 .98-2.042 3.536 3.536 0 0 1 2.381-.841 3.017 3.017 0 0 1 2.132.841 2.738 2.738 0 0 1 0 4.059 2.971 2.971 0 0 1-2.132.865 3.475 3.475 0 0 1-2.381-.865 2.619 2.619 0 0 1-.98-2.017zm.314-28.224a2.28 2.28 0 0 1 .833-1.89 3.348 3.348 0 0 1 2.157-.666 2.486 2.486 0 0 1 1.945.693 2.689 2.689 0 0 1 .621 1.863c0 2.557-.044 3.745-.131 9.531s-.131 7.61-.131 10.166a1.4 1.4 0 0 1-.749 1.252 2.97 2.97 0 0 1-1.555.452q-2.361 0-2.361-1.7c0-2.556-.1-4.379-.314-10.166s-.315-6.978-.315-9.539z" class="cls-2" data-name="Caminho 7849" transform="translate(-201.958 -124.51)"/>
</svg>
