<svg xmlns="http://www.w3.org/2000/svg" width="548" height="368"  viewBox="0 0 547.336 367.94">
    <defs>
        <style>
            .cls-1,.cls-2{fill:none}.cls-1{clip-rule:evenodd}.cls-3{clip-path:url(#clip-path)}.cls-4{clip-path:url(#clip-path-2)}.cls-5{fill:#eff8fb}.cls-6{clip-path:url(#clip-path-3)}.cls-7{clip-path:url(#clip-path-4)}.cls-8{fill:#fff}.cls-9{clip-path:url(#clip-path-5)}.cls-10{clip-path:url(#clip-path-7)}.cls-11{clip-path:url(#clip-path-9)}.cls-12{clip-path:url(#clip-path-11)}.cls-13{clip-path:url(#clip-path-13)}.cls-14{clip-path:url(#clip-path-14)}.cls-15{clip-path:url(#clip-path-15)}.cls-16{clip-path:url(#clip-path-16)}.cls-17{clip-path:url(#clip-path-17)}.cls-18{clip-path:url(#clip-path-18)}.cls-19{clip-path:url(#clip-path-19)}.cls-20{clip-path:url(#clip-path-21)}.cls-21{clip-path:url(#clip-path-23)}.cls-22{fill:#e4e4e4}.cls-23{clip-path:url(#clip-path-25)}.cls-24{clip-path:url(#clip-path-27)}.cls-25{fill:#6a79a8}.cls-26{clip-path:url(#clip-path-29)}.cls-27{fill:#f8f8f8}.cls-28{clip-path:url(#clip-path-31)}.cls-29{clip-path:url(#clip-path-33)}.cls-30{clip-path:url(#clip-path-35)}.cls-31{fill:#def3f8}.cls-32{clip-path:url(#clip-path-37)}.cls-33{clip-path:url(#clip-path-39)}.cls-34{clip-path:url(#clip-path-41)}.cls-35{clip-path:url(#clip-path-43)}.cls-36{fill:#badff5}.cls-37{clip-path:url(#clip-path-45)}.cls-38{clip-path:url(#clip-path-47)}.cls-39{clip-path:url(#clip-path-49)}.cls-40{clip-path:url(#clip-path-51)}.cls-41{clip-path:url(#clip-path-53)}.cls-42{clip-path:url(#clip-path-55)}.cls-43{clip-path:url(#clip-path-57)}.cls-44{clip-path:url(#clip-path-59)}.cls-45{clip-path:url(#clip-path-61)}.cls-46{clip-path:url(#clip-path-63)}.cls-47{clip-path:url(#clip-path-65)}.cls-48{clip-path:url(#clip-path-67)}.cls-49{clip-path:url(#clip-path-69)}.cls-50{clip-path:url(#clip-path-71)}.cls-51{clip-path:url(#clip-path-73)}.cls-52{clip-path:url(#clip-path-75)}.cls-53{clip-path:url(#clip-path-77)}.cls-54{clip-path:url(#clip-path-79)}.cls-55{clip-path:url(#clip-path-81)}.cls-56{clip-path:url(#clip-path-83)}.cls-57{clip-path:url(#clip-path-85)}.cls-58{clip-path:url(#clip-path-87)}.cls-59{clip-path:url(#clip-path-89)}.cls-60{clip-path:url(#clip-path-91)}.cls-61{clip-path:url(#clip-path-93)}.cls-62{clip-path:url(#clip-path-95)}.cls-63{clip-path:url(#clip-path-97)}.cls-64{clip-path:url(#clip-path-99)}.cls-65{clip-path:url(#clip-path-101)}.cls-66{clip-path:url(#clip-path-103)}.cls-67{clip-path:url(#clip-path-105)}.cls-68{clip-path:url(#clip-path-107)}.cls-69{clip-path:url(#clip-path-109)}
        </style>
        <clipPath id="clip-path">
            <path d="M0 0h547.336v367.94H0z" class="cls-2"/>
        </clipPath>
        <clipPath id="clip-path-2">
            <path id="Caminho_1329" d="M51.726-589.724C61.978-713.36 74.847-750.542 129-764.145s185.774-77.972 289.06-16.768 214.74 116.1 170.512 213.823S537.1-436.765 421.7-441.753s-174.241 3.14-229.361-5.71c-11.589-1.861-150.865-18.624-140.613-142.261z" class="cls-1" data-name="Caminho 1329" transform="translate(-51.187 806.884)"/>
        </clipPath>
        <clipPath id="clip-path-3">
            <path id="Caminho_1332" d="M726.635-722.9H570.923a12.692 12.692 0 0 1-12.655-12.655 12.692 12.692 0 0 1 12.655-12.655h155.712a12.692 12.692 0 0 1 12.655 12.655 12.692 12.692 0 0 1-12.655 12.655" class="cls-1" data-name="Caminho 1332" transform="translate(-558.268 748.208)"/>
        </clipPath>
        <clipPath id="clip-path-4">
            <path id="Caminho_1331" d="M-110-418.878h722.775V-963H-110z" class="cls-2" data-name="Caminho 1331" transform="translate(110 963)"/>
        </clipPath>
        <clipPath id="clip-path-5">
            <path id="Caminho_1335" d="M873.661-791.812h-64.124a10.124 10.124 0 0 1-10.094-10.094A10.123 10.123 0 0 1 809.537-812h64.124a10.123 10.123 0 0 1 10.093 10.094 10.124 10.124 0 0 1-10.093 10.094" class="cls-1" data-name="Caminho 1335" transform="translate(-799.443 812)"/>
        </clipPath>
        <clipPath id="clip-path-7">
            <path id="Caminho_1338" d="M900.122-654.924H836a10.123 10.123 0 0 1-10.1-10.094 10.124 10.124 0 0 1 10.1-10.094h64.124a10.121 10.121 0 0 1 10.092 10.094 10.121 10.121 0 0 1-10.092 10.094" class="cls-1" data-name="Caminho 1338" transform="translate(-825.904 675.112)"/>
        </clipPath>
        <clipPath id="clip-path-9">
            <path id="Caminho_1341" d="M885.527-683.752c-3.126 0-5.661-1.933-5.661-4.318s2.534-4.319 5.661-4.319h-24.7c3.126 0 5.661 1.933 5.661 4.319s-2.534 4.318-5.661 4.318h24.7" class="cls-1" data-name="Caminho 1341" transform="translate(-860.829 692.389)"/>
        </clipPath>
        <clipPath id="clip-path-11">
            <path id="Caminho_1344" d="M901.867-758.462c-3.263 0-5.909-2.018-5.909-4.508s2.646-4.508 5.909-4.508h-25.781c3.263 0 5.909 2.018 5.909 4.508s-2.645 4.508-5.909 4.508h25.781" class="cls-1" data-name="Caminho 1344" transform="translate(-876.086 767.478)"/>
        </clipPath>
        <clipPath id="clip-path-13">
            <path id="Caminho_1347" d="M13.684-310.429h161.283a12.925 12.925 0 0 1 13.108 12.655 12.925 12.925 0 0 1-13.108 12.655H13.684A12.926 12.926 0 0 1 .576-297.774a12.926 12.926 0 0 1 13.108-12.655" class="cls-1" data-name="Caminho 1347" transform="translate(-.576 310.429)"/>
        </clipPath>
        <clipPath id="clip-path-14">
            <path id="Caminho_1346" d="M-110-418.878h543.405V-963H-110z" class="cls-2" data-name="Caminho 1346" transform="translate(110 963)"/>
        </clipPath>
        <clipPath id="clip-path-15">
            <path id="Caminho_1350" d="M51.4-235.34h49.727c4.305 0 7.828 4.542 7.828 10.094s-3.522 10.094-7.828 10.094H51.4c-4.305 0-7.828-4.543-7.828-10.094S47.1-235.34 51.4-235.34" class="cls-1" data-name="Caminho 1350" transform="translate(-43.576 235.34)"/>
        </clipPath>
        <clipPath id="clip-path-16">
            <path id="Caminho_1349" d="M-110-418.878h531.734V-963H-110z" class="cls-2" data-name="Caminho 1349" transform="translate(110 963)"/>
        </clipPath>
        <clipPath id="clip-path-17">
            <path id="Caminho_1353" d="M63.117-372.228h124.147c10.749 0 19.542 4.542 19.542 10.094s-8.794 10.094-19.542 10.094H63.117c-10.748 0-19.541-4.543-19.541-10.094s8.794-10.094 19.541-10.094" class="cls-1" data-name="Caminho 1353" transform="translate(-43.576 372.228)"/>
        </clipPath>
        <clipPath id="clip-path-18">
            <path id="Caminho_1352" d="M-110-418.878h1606.107V-963H-110z" class="cls-2" data-name="Caminho 1352" transform="translate(110 963)"/>
        </clipPath>
        <clipPath id="clip-path-19">
            <path id="Caminho_1356" d="M193.546-329.479c3.126 0 5.661 1.934 5.661 4.319s-2.535 4.319-5.661 4.319h24.7c-3.126 0-5.66-1.934-5.66-4.319s2.534-4.319 5.66-4.319h-24.7" class="cls-1" data-name="Caminho 1356" transform="translate(-193.546 329.479)"/>
        </clipPath>
        <clipPath id="clip-path-21">
            <path id="Caminho_1359" d="M175.9-255.224c3.263 0 5.909 2.018 5.909 4.508s-2.645 4.508-5.909 4.508h25.781c-3.263 0-5.909-2.018-5.909-4.508s2.645-4.508 5.909-4.508H175.9" class="cls-1" data-name="Caminho 1359" transform="translate(-175.901 255.224)"/>
        </clipPath>
        <clipPath id="clip-path-23">
            <path id="Caminho_1362" d="M383-443.226h240.774V-684H383z" class="cls-1" data-name="Caminho 1362" transform="translate(-383 684)"/>
        </clipPath>
        <clipPath id="clip-path-25">
            <path id="Caminho_1365" d="M395-431.226h240.774V-672H395z" class="cls-1" data-name="Caminho 1365" transform="translate(-395 672)"/>
        </clipPath>
        <clipPath id="clip-path-27">
            <path id="Caminho_1368" d="M634.315-433.112h-237.3a14.058 14.058 0 0 0-3.238 0 1.748 1.748 0 0 1-.4 0l1.012.714v-237.145a12.913 12.913 0 0 0 0-3.236 1.582 1.582 0 0 1 0-.4l-1.208.883h237.3a14.056 14.056 0 0 0 3.238 0 1.75 1.75 0 0 1 .4 0l-1.012-.714v230.953c0 3.057-.377 6.388 0 9.428a3.343 3.343 0 0 1 0 .4c0 1.141 2.22.812 2.22-.169v-230.953c0-3.057.377-6.388 0-9.428a3.331 3.331 0 0 1 0-.4c0-.567-.531-.714-1.012-.714h-231.1c-3.112 0-6.327-.232-9.434 0-.133.01-.27 0-.4 0-.427 0-1.208.371-1.208.883v230.953c0 3.057-.377 6.388 0 9.428a3.331 3.331 0 0 1 0 .4c0 .567.531.714 1.012.714h231.1c3.112 0 6.327.232 9.434 0 .133-.01.27 0 .4 0 1.249 0 1.685-1.6.2-1.6" class="cls-1" data-name="Caminho 1368" transform="translate(-392 674)"/>
        </clipPath>
        <clipPath id="clip-path-29">
            <path id="Caminho_1371" d="M395-399.979h240.774V-614H395z" class="cls-1" data-name="Caminho 1371" transform="translate(-395 614)"/>
        </clipPath>
        <clipPath id="clip-path-31">
            <path id="Caminho_1374" d="M395-399.979h229.892V-614H395z" class="cls-1" data-name="Caminho 1374" transform="translate(-395 614)"/>
        </clipPath>
        <clipPath id="clip-path-33">
            <path id="Caminho_1377" d="M634.321-433.065h-237.3a14.129 14.129 0 0 0-3.238 0 1.748 1.748 0 0 1-.4 0l1 .684v-237.192a12.85 12.85 0 0 0 0-3.236 1.585 1.585 0 0 1 0-.4l-1.213.866h237.3a14.129 14.129 0 0 0 3.238 0 1.746 1.746 0 0 1 .4 0l-1-.684v231c0 3.055-.382 6.392 0 9.429a3.331 3.331 0 0 1 0 .4c0 1.115 2.216.765 2.216-.182v-231c0-3.055.382-6.392 0-9.43a3.332 3.332 0 0 1 0-.4c0-.562-.535-.684-1-.684h-231.1c-3.113 0-6.328-.232-9.434 0-.133.01-.27 0-.4 0-.413 0-1.213.363-1.213.866v231c0 3.055-.382 6.392 0 9.429a3.331 3.331 0 0 1 0 .4c0 .563.535.684 1 .684h231.1c3.113 0 6.328.232 9.434 0 .133-.01.27 0 .4 0 1.231 0 1.7-1.549.209-1.549" class="cls-1" data-name="Caminho 1377" transform="translate(-392 674)"/>
        </clipPath>
        <clipPath id="clip-path-35">
            <path id="Caminho_1380" d="M501-311.024h138.751V-321H501z" class="cls-1" data-name="Caminho 1380" transform="translate(-501 321)"/>
        </clipPath>
        <clipPath id="clip-path-37">
            <path id="Caminho_1383" d="M587.557-311.093h58.426c.736 0 2.09-.907.767-.907h-58.426c-.737 0-2.09.907-.767.907" class="cls-1" data-name="Caminho 1383" transform="translate(-587 312)"/>
        </clipPath>
        <clipPath id="clip-path-39">
            <path id="Caminho_1386" d="M465.864-331.3h161.707a55.41 55.41 0 0 0 6.61 0 2.4 2.4 0 0 1 .292 0c1.151 0 1.491-1.58.156-1.58H472.921a55.308 55.308 0 0 0-6.61 0 2.512 2.512 0 0 1-.292 0c-1.151 0-1.491 1.58-.156 1.58" class="cls-1" data-name="Caminho 1386" transform="translate(-465 333)"/>
        </clipPath>
        <clipPath id="clip-path-41">
            <path id="Caminho_1389" d="M428-417.563h207.673V-462H428z" class="cls-1" data-name="Caminho 1389" transform="translate(-428 462)"/>
        </clipPath>
        <clipPath id="clip-path-43">
            <path id="Caminho_1392" d="M395-645.7h240.321V-672H395z" class="cls-1" data-name="Caminho 1392" transform="translate(-395 672)"/>
        </clipPath>
        <clipPath id="clip-path-45">
            <path id="Caminho_1395" d="M625.892-638.689H396V-660h218.343a11.6 11.6 0 0 1 11.549 11.649v9.663" class="cls-1" data-name="Caminho 1395" transform="translate(-396 660)"/>
        </clipPath>
        <clipPath id="clip-path-47">
            <path id="Caminho_1398" d="M634.912-647.316H398.171a12.157 12.157 0 0 0-3.247 0 1.5 1.5 0 0 1-.405 0l.676.507v-26.534l-1.519.771h236.741a12.154 12.154 0 0 0 3.246 0 1.516 1.516 0 0 1 .405 0l-.676-.507v26.534c0 .933 2.195.481 2.195-.264v-26.534c0-.37-.337-.507-.676-.507H424.025c-9.678 0-19.426-.339-29.1 0h-.405c-.356 0-1.519.206-1.519.771v26.534c0 .37.337.507.676.507h210.886c9.678 0 19.426.339 29.1 0h.405c.847 0 2.318-1.278.843-1.278" class="cls-1" data-name="Caminho 1398" transform="translate(-393 674)"/>
        </clipPath>
        <clipPath id="clip-path-49">
            <path id="Caminho_1401" d="M430.522-648.239a4.761 4.761 0 0 0-4.761-4.761 4.761 4.761 0 0 0-4.761 4.761 4.761 4.761 0 0 0 4.761 4.761 4.761 4.761 0 0 0 4.761-4.761" class="cls-1" data-name="Caminho 1401" transform="translate(-421 653)"/>
        </clipPath>
        <clipPath id="clip-path-51">
            <path id="Caminho_1404" d="M462.522-648.239a4.761 4.761 0 0 0-4.761-4.761 4.761 4.761 0 0 0-4.761 4.761 4.761 4.761 0 0 0 4.761 4.761 4.761 4.761 0 0 0 4.761-4.761" class="cls-1" data-name="Caminho 1404" transform="translate(-453 653)"/>
        </clipPath>
        <clipPath id="clip-path-53">
            <path id="Caminho_1407" d="M493.522-648.239a4.761 4.761 0 0 0-4.761-4.761 4.761 4.761 0 0 0-4.761 4.761 4.761 4.761 0 0 0 4.761 4.761 4.761 4.761 0 0 0 4.761-4.761" class="cls-1" data-name="Caminho 1407" transform="translate(-484 653)"/>
        </clipPath>
        <clipPath id="clip-path-55">
            <path id="Caminho_1410" d="M426.782-649.075c-.388-7-11.79-6.274-11.782.491.008 7.078 11.417 6.375 11.788-.313.055-1-2.188-.615-2.235.223-.111 2-1.451 4.053-3.771 3.807a4.144 4.144 0 0 1-3.526-4.12 3.5 3.5 0 0 1 4.115-3.633 4.241 4.241 0 0 1 3.189 4.124c.046.823 2.273.35 2.222-.581" class="cls-1" data-name="Caminho 1410" transform="translate(-415 654)"/>
        </clipPath>
        <clipPath id="clip-path-57">
            <path id="Caminho_1413" d="M458.788-649.078c-.386-7.031-11.771-6.232-11.788.509-.018 7.112 11.423 6.311 11.788-.351.049-.9-2.183-.468-2.224.272-.116 2.1-1.562 4.354-4.017 3.85a4.3 4.3 0 0 1-3.3-4.2c0-2.292 1.9-4.423 4.361-3.65a4.4 4.4 0 0 1 2.952 4.159c.039.709 2.27.262 2.223-.588" class="cls-1" data-name="Caminho 1413" transform="translate(-447 654)"/>
        </clipPath>
        <clipPath id="clip-path-59">
            <path id="Caminho_1416" d="M489.789-649.081c-.384-7.056-11.755-6.2-11.789.521-.036 7.138 11.423 6.264 11.784-.378.045-.822-2.179-.367-2.216.307-.12 2.207-1.727 4.645-4.3 3.831a4.436 4.436 0 0 1-3.026-4.21c-.005-2.358 1.969-4.612 4.5-3.67a4.543 4.543 0 0 1 2.82 4.191c.034.626 2.267.2 2.224-.592" class="cls-1" data-name="Caminho 1416" transform="translate(-478 654)"/>
        </clipPath>
        <clipPath id="clip-path-61">
            <path id="Caminho_1419" d="M430.782-649.075c-.388-7-11.79-6.274-11.782.491.008 7.078 11.417 6.375 11.788-.313.055-1-2.188-.615-2.235.223-.111 2-1.451 4.053-3.771 3.807a4.144 4.144 0 0 1-3.526-4.12 3.5 3.5 0 0 1 4.115-3.633 4.24 4.24 0 0 1 3.189 4.124c.046.823 2.273.35 2.222-.581" class="cls-1" data-name="Caminho 1419" transform="translate(-419 654)"/>
        </clipPath>
        <clipPath id="clip-path-63">
            <path id="Caminho_1422" d="M461.788-649.078c-.386-7.031-11.771-6.232-11.788.509-.018 7.112 11.423 6.311 11.788-.351.049-.9-2.183-.468-2.224.272-.116 2.1-1.562 4.354-4.017 3.85a4.3 4.3 0 0 1-3.3-4.2c0-2.292 1.9-4.423 4.361-3.65a4.4 4.4 0 0 1 2.952 4.159c.039.709 2.27.262 2.223-.588" class="cls-1" data-name="Caminho 1422" transform="translate(-450 654)"/>
        </clipPath>
        <clipPath id="clip-path-65">
            <path id="Caminho_1425" d="M492.789-649.081c-.384-7.056-11.755-6.2-11.789.521-.036 7.138 11.423 6.264 11.784-.378.045-.822-2.179-.367-2.216.307-.12 2.207-1.727 4.645-4.3 3.831a4.436 4.436 0 0 1-3.026-4.21c-.005-2.358 1.969-4.612 4.5-3.67a4.543 4.543 0 0 1 2.82 4.191c.034.626 2.267.2 2.223-.592" class="cls-1" data-name="Caminho 1425" transform="translate(-481 654)"/>
        </clipPath>
        <clipPath id="clip-path-67">
            <path id="Caminho_1428" d="M582.125-504.808c4.818-4.91 12.6-8.7 19.474-10.518a50.806 50.806 0 0 1 37.813 5.272 34.21 34.21 0 0 1 6.474 4.591c.512.484 2.561-.347 2.048-.833-5.911-5.6-14.405-8.969-22.184-10.584a52.968 52.968 0 0 0-38.558 6.671 37.71 37.71 0 0 0-7.092 5.426c-.584.6 1.571.439 2.025-.024" class="cls-1" data-name="Caminho 1428" transform="translate(-580 518)"/>
        </clipPath>
        <clipPath id="clip-path-69">
            <path id="Caminho_1431" d="M559.522-555.239a4.761 4.761 0 0 0-4.761-4.761 4.761 4.761 0 0 0-4.761 4.761 4.761 4.761 0 0 0 4.761 4.761 4.761 4.761 0 0 0 4.761-4.761" class="cls-1" data-name="Caminho 1431" transform="translate(-550 560)"/>
        </clipPath>
        <clipPath id="clip-path-71">
            <path id="Caminho_1434" d="M745.522-555.239a4.761 4.761 0 0 0-4.761-4.761 4.761 4.761 0 0 0-4.761 4.761 4.761 4.761 0 0 0 4.761 4.761 4.761 4.761 0 0 0 4.761-4.761" class="cls-1" data-name="Caminho 1434" transform="translate(-736 560)"/>
        </clipPath>
        <clipPath id="clip-path-73">
            <path id="Caminho_1437" d="M696.06-396.919a2.112 2.112 0 0 1-1.45-.542 1.925 1.925 0 0 1-.61-1.519 1.966 1.966 0 0 1 .583-1.424 1.931 1.931 0 0 1 1.438-.6 2.01 2.01 0 0 1 1.457.589 1.926 1.926 0 0 1 .6 1.431 1.941 1.941 0 0 1-.6 1.512 2.038 2.038 0 0 1-1.417.549" class="cls-1" data-name="Caminho 1437" transform="translate(-694 401)"/>
        </clipPath>
        <clipPath id="clip-path-75">
            <path id="Caminho_1440" d="M715.061-396.919a2.112 2.112 0 0 1-1.451-.542 1.926 1.926 0 0 1-.61-1.519 1.965 1.965 0 0 1 .583-1.424 1.931 1.931 0 0 1 1.438-.6 2.009 2.009 0 0 1 1.457.589 1.927 1.927 0 0 1 .6 1.431 1.942 1.942 0 0 1-.6 1.512 2.037 2.037 0 0 1-1.417.549" class="cls-1" data-name="Caminho 1440" transform="translate(-713 401)"/>
        </clipPath>
        <clipPath id="clip-path-77">
            <path id="Caminho_1443" d="M733.061-396.919a2.112 2.112 0 0 1-1.451-.542 1.926 1.926 0 0 1-.61-1.519 1.966 1.966 0 0 1 .583-1.424 1.931 1.931 0 0 1 1.438-.6 2.009 2.009 0 0 1 1.457.589 1.927 1.927 0 0 1 .6 1.431 1.942 1.942 0 0 1-.6 1.512 2.037 2.037 0 0 1-1.417.549" class="cls-1" data-name="Caminho 1443" transform="translate(-731 401)"/>
        </clipPath>
        <clipPath id="clip-path-79">
            <path id="Caminho_1446" d="M330.753-408.634a72.545 72.545 0 0 0 28.621-46.852c.139-.882-2.059-.516-2.183.26a71.034 71.034 0 0 1-27.8 45.9c-1.188.873.657 1.213 1.364.694" class="cls-1" data-name="Caminho 1446" transform="translate(-329 456)"/>
        </clipPath>
        <clipPath id="clip-path-81">
            <path id="Caminho_1449" d="M954.281-409.354a71.67 71.67 0 0 1-28.1-46.312c-.111-.7-2.3-.195-2.176.587a72.169 72.169 0 0 0 28.251 46.568c.6.442 2.587-.428 2.024-.843" class="cls-1" data-name="Caminho 1449" transform="translate(-924 456)"/>
        </clipPath>
        <clipPath id="clip-path-83">
            <path id="Caminho_1452" d="M373.585-275.386h-90.8a5.729 5.729 0 0 1-2.953-.8A28.414 28.414 0 0 1 266-300.55a28.472 28.472 0 0 1 28.465-28.411q.318 0 .639.009a5.77 5.77 0 0 0 5.365-3.354 41.777 41.777 0 0 1 38.041-24.184 39.608 39.608 0 0 1 10.223 1.3 39.681 39.681 0 0 1 11.565 5.275q1.334.88 2.607 1.846a9.311 9.311 0 0 1 2.522 2.3 42.912 42.912 0 0 0 4.519 5.346c1.484 1.49 3.339 2.219 4.767 3.709.794.829 2.609 1.763 3.242 2.7 3.6 5.351 13.6-.364 14.847-1.124a30.208 30.208 0 0 1 15.816-4.232 30.341 30.341 0 0 1 12.343 2.8c4.039 1.865 7.151 4.852 10.874 7.185 4.319 2.707 7.345-4.293 8.094-7.339.6-2.446.866-5.086 1.81-7.429 2.59-6.428 5.1-13.762 8.711-19.682a69.422 69.422 0 0 1 18.574-19.649C479.122-390.952 498.5-396 510.485-396a62.147 62.147 0 0 1 57.31 37.6 5.815 5.815 0 0 0 5.767 3.424q1.23-.085 2.424-.085a42.342 42.342 0 0 1 42.333 42.252 42.267 42.267 0 0 1-21.258 36.635 5.871 5.871 0 0 1-2.926.787h-220.55" class="cls-1" data-name="Caminho 1452" transform="translate(-266 396)"/>
        </clipPath>
        <clipPath id="clip-path-85">
            <path id="Caminho_1455" d="M384.585-269.386h-90.8a5.729 5.729 0 0 1-2.953-.8A28.414 28.414 0 0 1 277-294.55a28.472 28.472 0 0 1 28.465-28.412q.318 0 .639.009a5.772 5.772 0 0 0 5.365-3.354 41.775 41.775 0 0 1 38.04-24.183 39.623 39.623 0 0 1 10.223 1.3 39.685 39.685 0 0 1 11.565 5.276q1.334.879 2.607 1.846a9.3 9.3 0 0 1 2.522 2.3 42.874 42.874 0 0 0 4.518 5.346c1.484 1.491 3.339 2.219 4.767 3.709.794.829 2.609 1.763 3.242 2.7 3.6 5.351 13.6-.364 14.847-1.124a30.208 30.208 0 0 1 15.816-4.232 30.35 30.35 0 0 1 12.343 2.8c4.039 1.865 7.151 4.852 10.874 7.186 4.32 2.707 7.345-4.294 8.095-7.34.6-2.446.865-5.085 1.81-7.429 2.591-6.428 5.1-13.762 8.711-19.682a69.428 69.428 0 0 1 18.574-19.649C490.122-384.952 509.5-390 521.485-390a62.148 62.148 0 0 1 57.31 37.6 5.815 5.815 0 0 0 5.767 3.424q1.23-.085 2.424-.085a42.343 42.343 0 0 1 42.333 42.252 42.268 42.268 0 0 1-21.259 36.635 5.868 5.868 0 0 1-2.926.787H384.585" class="cls-1" data-name="Caminho 1455" transform="translate(-277 390)"/>
        </clipPath>
        <clipPath id="clip-path-87">
            <path id="Caminho_1458" d="M382.539-257.362h-88.234a5.822 5.822 0 0 1-2.87-.738A25.814 25.814 0 0 1 278-280.444c0-14.37 12.408-26.062 27.659-26.062q.309 0 .621.008a5.645 5.645 0 0 0 5.213-3.076c6.683-13.477 20.854-22.184 36.963-22.184a40.642 40.642 0 0 1 9.934 1.195 39.674 39.674 0 0 1 11.237 4.839q1.3.807 2.533 1.693a8.872 8.872 0 0 1 2.451 2.106 39.949 39.949 0 0 0 4.39 4.9c1.442 1.367 3.244 2.036 4.632 3.4.772.76 2.535 1.617 3.15 2.48 3.5 4.909 13.219-.334 14.427-1.031a30.7 30.7 0 0 1 15.369-3.882 30.958 30.958 0 0 1 11.993 2.572c3.924 1.711 6.948 4.451 10.566 6.592 4.2 2.483 7.137-3.939 7.865-6.733.585-2.244.841-4.665 1.759-6.815 2.517-5.9 4.954-12.623 8.464-18.054a65.381 65.381 0 0 1 18.048-18.024c9.814-6.85 28.642-11.48 40.289-11.48 24.55 0 46.073 13.6 55.687 34.491a5.7 5.7 0 0 0 5.6 3.14q1.2-.078 2.356-.078c22.681 0 41.134 17.388 41.134 38.758 0 14.351-8.322 26.906-20.657 33.605a5.963 5.963 0 0 1-2.843.722h-214.3" class="cls-1" data-name="Caminho 1458" transform="translate(-278 368)"/>
        </clipPath>
        <clipPath id="clip-path-89">
            <path id="Caminho_1461" d="M401.862-227.425A22.688 22.688 0 0 1 426.55-212.5a22.863 22.863 0 0 1-10.78 27.527c-1.294.7.625 1.112 1.376.7 10.411-5.646 15.647-18.158 11.389-29.388a24.2 24.2 0 0 0-26.391-15.039c-1.071.171-1.793 1.515-.282 1.274" class="cls-1" data-name="Caminho 1461" transform="translate(-401 229)"/>
        </clipPath>
        <clipPath id="clip-path-91">
            <path id="Caminho_1464" d="M293.15-222.649a28.518 28.518 0 0 1-13.686-33.375c3.954-12.62 16.681-20.937 29.777-18.814.61.1 1.519-.092 1.758-.748a41.258 41.258 0 0 1 25.367-25.214 41.062 41.062 0 0 1 39.059 7.663c.615.515 2.656-.348 2.025-.876-17.346-14.52-43.932-13.076-59.429 3.517a44.366 44.366 0 0 0-9.211 15.172l1.758-.748a30.133 30.133 0 0 0-27.795 10.272 29.187 29.187 0 0 0-4.128 30.808 29.57 29.57 0 0 0 12.774 13.441c.658.358 2.659-.591 1.73-1.1" class="cls-1" data-name="Caminho 1464" transform="translate(-276 304)"/>
        </clipPath>
        <clipPath id="clip-path-93">
            <path id="Caminho_1467" d="M365.859-197.525a15.21 15.21 0 0 1 16.541 10.314 15.661 15.661 0 0 1-7.251 18.622c-1.282.715.621 1.126 1.367.71a16.861 16.861 0 0 0 7.864-20.483 16.7 16.7 0 0 0-18.24-10.445c-1.069.16-1.785 1.508-.281 1.282" class="cls-1" data-name="Caminho 1467" transform="translate(-365 199)"/>
        </clipPath>
        <clipPath id="clip-path-95">
            <path id="Caminho_1470" d="M519.623-228.528a32.521 32.521 0 0 1 11.565-30.346 31.1 31.1 0 0 1 33.389-3.451A33.01 33.01 0 0 1 578.71-248.4c.414.775 2.537.068 2.185-.589a33.834 33.834 0 0 0-31.219-17.981 34.534 34.534 0 0 0-28.837 18.13 33.274 33.274 0 0 0-3.4 20.9c.129.788 2.325.264 2.185-.589" class="cls-1" data-name="Caminho 1470" transform="translate(-517 267)"/>
        </clipPath>
        <clipPath id="clip-path-97">
            <path id="Caminho_1473" d="M453.39-251.666c-1.136-7.367 2.743-15.062 9.7-17.919 7.664-3.147 16.267.644 20.149 7.774.421.773 2.535.061 2.18-.59a18.234 18.234 0 0 0-22.093-8.573 18.237 18.237 0 0 0-12.119 19.9c.121.787 2.313.267 2.181-.59" class="cls-1" data-name="Caminho 1473" transform="translate(-451 272)"/>
        </clipPath>
        <clipPath id="clip-path-99">
            <path id="Caminho_1476" d="M584.494-180.177a18.422 18.422 0 0 1-13.3-18.132 17.8 17.8 0 0 1 16.16-17.4c1.095-.09 1.787-1.406.28-1.282-9.434.776-17.658 7.98-18.55 17.746a19.322 19.322 0 0 0 14.094 20.31c.733.2 2.561-.9 1.32-1.241" class="cls-1" data-name="Caminho 1476" transform="translate(-569 217)"/>
        </clipPath>
        <clipPath id="clip-path-101">
            <path id="Caminho_1479" d="M796.226-215.568A34.4 34.4 0 0 1 778.2-246.84a34.02 34.02 0 0 1 17.547-28.481 32.729 32.729 0 0 1 20.974-3.516c1.146.189 2.2-1.459.731-1.7a36.015 36.015 0 0 0-34.279 13.725 35.7 35.7 0 0 0-3.668 36.876A36.083 36.083 0 0 0 794.984-214c.96.518 2.485-.9 1.242-1.565" class="cls-1" data-name="Caminho 1479" transform="translate(-776 281)"/>
        </clipPath>
        <clipPath id="clip-path-103">
            <path id="Caminho_1482" d="M660.234-328.883a75.287 75.287 0 0 1 20.237-42.156c18.559-19.09 49.988-24.759 74.27-14.041a62.287 62.287 0 0 1 33.045 35.793c.2.561.8.6 1.312.516a41.271 41.271 0 0 1 39.54 16.416 41.882 41.882 0 0 1 4.014 42.47 41.805 41.805 0 0 1-18.017 18.75c-1.308.7-.135 2.014 1 1.406 14.829-7.946 24.214-23.842 23.212-40.756a43.436 43.436 0 0 0-23.3-35.753 43.086 43.086 0 0 0-26.887-4.153l1.312.517a63.977 63.977 0 0 0-28.782-34.164c-13.506-7.517-29.048-9.337-44.2-7.022a67.493 67.493 0 0 0-33.9 15.075 72.5 72.5 0 0 0-18.229 24.443 76.491 76.491 0 0 0-6.854 22.794c-.145 1.179 2.1.929 2.227-.135" class="cls-1" data-name="Caminho 1482" transform="translate(-658 392)"/>
        </clipPath>
        <clipPath id="clip-path-105">
            <path id="Caminho_1485" d="M861.355-190.42a23.215 23.215 0 0 1-10.9-27.786A22.449 22.449 0 0 1 875.029-233c1.142.182 2.19-1.458.728-1.692a25.083 25.083 0 0 0-27.2 15.617 24.6 24.6 0 0 0 11.559 30.215c.954.519 2.474-.886 1.238-1.558" class="cls-1" data-name="Caminho 1485" transform="translate(-847 235)"/>
        </clipPath>
        <clipPath id="clip-path-107">
            <path id="Caminho_1488" d="M716.427-235.5a41.861 41.861 0 0 1-22.206-38.506 41.528 41.528 0 0 1 21.762-34.5 40.726 40.726 0 0 1 25.8-4.241c1.149.189 2.2-1.448.734-1.69a44.036 44.036 0 0 0-41.837 16.675 42.882 42.882 0 0 0-4.508 44.3 43.809 43.809 0 0 0 19.007 19.509c.963.513 2.494-.892 1.247-1.556" class="cls-1" data-name="Caminho 1488" transform="translate(-692 315)"/>
        </clipPath>
        <clipPath id="clip-path-109">
            <path id="Caminho_1491" d="M930.21-175.985a17.043 17.043 0 0 1-8.185-20.113 16.144 16.144 0 0 1 17.748-10.979c1.143.179 2.193-1.472.729-1.7a18.777 18.777 0 0 0-20.162 11.233 18.346 18.346 0 0 0 8.2 22.889c.9.5 2.774-.719 1.669-1.329" class="cls-1" data-name="Caminho 1491" transform="translate(-919 209)"/>
        </clipPath>
    </defs>
    <g id="img-errorblocked" class="cls-3">
        <g id="Grupo_3915" class="cls-4" data-name="Grupo 3915" transform="translate(0 2.32)">
            <g id="Grupo_3914" data-name="Grupo 3914" transform="translate(-2.267 -2.267)">
                <path id="Caminho_1328" d="M46.187-441.73h551.87v-370.154H46.187z" class="cls-5" data-name="Caminho 1328" transform="translate(-46.187 811.884)"/>
            </g>
        </g>
        <g id="Grupo_3917" class="cls-6" data-name="Grupo 3917" transform="translate(229.928 28.926)">
            <g id="Grupo_3916" class="cls-7" data-name="Grupo 3916" transform="translate(-303.016 -97.394)">
                <path id="Caminho_1330" d="M553.268-723.363h185.557v-29.845H553.268z" class="cls-8" data-name="Caminho 1330" transform="translate(-252.519 848.335)"/>
            </g>
        </g>
        <g id="Grupo_3919" class="cls-9" data-name="Grupo 3919" transform="translate(339.285)">
            <g id="Grupo_3918" class="cls-7" data-name="Grupo 3918" transform="translate(-412.373 -68.469)">
                <path id="Caminho_1333" d="M794.443-792.278h88.846V-817h-88.846z" class="cls-8" data-name="Caminho 1333" transform="translate(-384.337 883.202)"/>
            </g>
        </g>
        <g id="Grupo_3921" class="cls-10" data-name="Grupo 3921" transform="translate(351.283 62.07)">
            <g id="Grupo_3920" class="cls-7" data-name="Grupo 3920" transform="translate(-424.372 -130.539)">
                <path id="Caminho_1336" d="M820.9-655.39h88.844v-24.722H820.9z" class="cls-8" data-name="Caminho 1336" transform="translate(-398.799 808.383)"/>
            </g>
        </g>
        <g id="Grupo_3923" class="cls-11" data-name="Grupo 3923" transform="translate(367.12 54.236)">
            <g id="Grupo_3922" class="cls-7" data-name="Grupo 3922" transform="translate(-440.208 -122.705)">
                <path id="Caminho_1339" d="M855.829-684.217h29.232v-13.172h-29.232z" class="cls-8" data-name="Caminho 1339" transform="translate(-417.888 817.826)"/>
            </g>
        </g>
        <g id="Grupo_3925" class="cls-12" data-name="Grupo 3925" transform="translate(374.038 20.188)">
            <g id="Grupo_3924" class="cls-7" data-name="Grupo 3924" transform="translate(-447.126 -88.657)">
                <path id="Caminho_1342" d="M871.086-758.928H901.4v-13.55h-30.314z" class="cls-8" data-name="Caminho 1342" transform="translate(-426.227 858.867)"/>
            </g>
        </g>
        <g id="Grupo_3927" class="cls-13" data-name="Grupo 3927" transform="translate(38.941 227.43)">
            <g id="Grupo_3926" class="cls-14" data-name="Grupo 3926" transform="translate(-37.696 -295.899)">
                <path id="Caminho_1345" d="M-4.424-285.585h190.908v-29.844H-4.424z" class="cls-8" data-name="Caminho 1345" transform="translate(40.416 609.06)"/>
            </g>
        </g>
        <g id="Grupo_3929" class="cls-15" data-name="Grupo 3929" transform="translate(20.039 261.478)">
            <g id="Grupo_3928" class="cls-16" data-name="Grupo 3928" transform="translate(-51.231 -329.947)">
                <path id="Caminho_1348" d="M38.576-215.618h68.718v-24.722H38.576z" class="cls-8" data-name="Caminho 1348" transform="translate(10.987 568.019)"/>
            </g>
        </g>
        <g id="Grupo_3931" class="cls-17" data-name="Grupo 3931" transform="translate(3.548 199.408)">
            <g id="Grupo_3930" class="cls-18" data-name="Grupo 3930" transform="translate(-154.742 -267.877)">
                <path id="Caminho_1351" d="M38.576-352.506h173.306v-24.722H38.576z" class="cls-8" data-name="Caminho 1351" transform="translate(111.129 642.838)"/>
            </g>
        </g>
        <g id="Grupo_3933" class="cls-19" data-name="Grupo 3933" transform="translate(64.55 218.792)">
            <g id="Grupo_3932" class="cls-7" data-name="Grupo 3932" transform="translate(-137.638 -287.261)">
                <path id="Caminho_1354" d="M188.546-321.307h29.232v-13.172h-29.232z" class="cls-8" data-name="Caminho 1354" transform="translate(-53.175 619.472)"/>
            </g>
        </g>
        <g id="Grupo_3935" class="cls-20" data-name="Grupo 3935" transform="translate(56.549 252.462)">
            <g id="Grupo_3934" class="cls-7" data-name="Grupo 3934" transform="translate(-129.638 -320.93)">
                <path id="Caminho_1357" d="M170.9-246.674h30.315v-13.55H170.9z" class="cls-8" data-name="Caminho 1357" transform="translate(-43.531 578.887)"/>
            </g>
        </g>
        <g id="Grupo_3937" class="cls-21" data-name="Grupo 3937" transform="translate(150.456 58.04)">
            <g id="Grupo_3936" class="cls-7" data-name="Grupo 3936" transform="translate(-223.543 -126.508)">
                <path id="Caminho_1360" d="M378-443.692h245.308V-689H378z" class="cls-22" data-name="Caminho 1360" transform="translate(-156.724 813.241)"/>
            </g>
        </g>
        <g id="Grupo_3939" class="cls-23" data-name="Grupo 3939" transform="translate(155.896 63.481)">
            <g id="Grupo_3938" class="cls-7" data-name="Grupo 3938" transform="translate(-228.985 -131.95)">
                <path id="Caminho_1363" d="M390-431.692h245.308V-677H390z" class="cls-8" data-name="Caminho 1363" transform="translate(-163.282 806.682)"/>
            </g>
        </g>
        <g id="Grupo_3941" class="cls-24" data-name="Grupo 3941" transform="translate(154.536 62.574)">
            <g id="Grupo_3940" class="cls-7" data-name="Grupo 3940" transform="translate(-227.624 -131.043)">
                <path id="Caminho_1366" d="M387-431.878h248.029V-679H387z" class="cls-25" data-name="Caminho 1366" transform="translate(-161.643 807.776)"/>
            </g>
        </g>
        <g id="Grupo_3943" class="cls-26" data-name="Grupo 3943" transform="translate(155.896 89.78)">
            <g id="Grupo_3942" class="cls-7" data-name="Grupo 3942" transform="translate(-228.985 -158.249)">
                <path id="Caminho_1369" d="M390-400.444h245.308V-619H390z" class="cls-27" data-name="Caminho 1369" transform="translate(-163.282 774.982)"/>
            </g>
        </g>
        <g id="Grupo_3945" class="cls-28" data-name="Grupo 3945" transform="translate(155.896 89.78)">
            <g id="Grupo_3944" class="cls-7" data-name="Grupo 3944" transform="translate(-228.985 -158.249)">
                <path id="Caminho_1372" d="M390-400.444h234.426V-619H390z" class="cls-8" data-name="Caminho 1372" transform="translate(-163.282 774.982)"/>
            </g>
        </g>
        <g id="Grupo_3947" class="cls-29" data-name="Grupo 3947" transform="translate(154.536 62.574)">
            <g id="Grupo_3946" class="cls-7" data-name="Grupo 3946" transform="translate(-227.624 -131.043)">
                <path id="Caminho_1375" d="M387-431.878h248.029V-679H387z" class="cls-25" data-name="Caminho 1375" transform="translate(-161.643 807.776)"/>
            </g>
        </g>
        <g id="Grupo_3949" class="cls-30" data-name="Grupo 3949" transform="translate(203.96 222.636)">
            <g id="Grupo_3948" class="cls-7" data-name="Grupo 3948" transform="translate(-277.049 -291.105)">
                <path id="Caminho_1378" d="M496-311.49h143.286V-326H496z" class="cls-31" data-name="Caminho 1378" transform="translate(-221.218 614.838)"/>
            </g>
        </g>
        <g id="Grupo_3951" class="cls-32" data-name="Grupo 3951" transform="translate(242.956 226.718)">
            <g id="Grupo_3950" class="cls-7" data-name="Grupo 3950" transform="translate(-316.044 -295.186)">
                <path id="Caminho_1381" d="M582-311.559h64.841V-317H582z" class="cls-8" data-name="Caminho 1381" transform="translate(-268.223 609.919)"/>
            </g>
        </g>
        <g id="Grupo_3953" class="cls-33" data-name="Grupo 3953" transform="translate(187.637 217.196)">
            <g id="Grupo_3952" class="cls-7" data-name="Grupo 3952" transform="translate(-260.725 -285.664)">
                <path id="Caminho_1384" d="M460-331.652h175.026V-338H460z" class="cls-31" data-name="Caminho 1384" transform="translate(-201.542 621.397)"/>
            </g>
        </g>
        <g id="Grupo_3955" class="cls-34" data-name="Grupo 3955" transform="translate(170.86 159)">
            <g id="Grupo_3954" class="cls-7" data-name="Grupo 3954" transform="translate(-243.948 -227.171)">
                <path id="Caminho_1387" d="M423-418.029h212.208V-467H423z" class="cls-31" data-name="Caminho 1387" transform="translate(-181.319 691.904)"/>
            </g>
        </g>
        <g id="Grupo_3957" class="cls-35" data-name="Grupo 3957" transform="translate(155.896 63.481)">
            <g id="Grupo_3956" class="cls-7" data-name="Grupo 3956" transform="translate(-228.985 -131.95)">
                <path id="Caminho_1390" d="M390-646.166h244.855V-677H390z" class="cls-36" data-name="Caminho 1390" transform="translate(-163.282 806.682)"/>
            </g>
        </g>
        <g id="Grupo_3959" class="cls-37" data-name="Grupo 3959" transform="translate(156.35 68.922)">
            <g id="Grupo_3958" class="cls-7" data-name="Grupo 3958" transform="translate(-229.438 -137.391)">
                <path id="Caminho_1393" d="M391-639.154h234.426V-665H391z" class="cls-31" data-name="Caminho 1393" transform="translate(-163.829 800.124)"/>
            </g>
        </g>
        <g id="Grupo_3961" class="cls-38" data-name="Grupo 3961" transform="translate(154.989 62.574)">
            <g id="Grupo_3960" class="cls-7" data-name="Grupo 3960" transform="translate(-228.078 -131.043)">
                <path id="Caminho_1396" d="M388-646.353h247.122V-679H388z" class="cls-25" data-name="Caminho 1396" transform="translate(-162.189 807.776)"/>
            </g>
        </g>
        <g id="Grupo_3963" class="cls-39" data-name="Grupo 3963" transform="translate(167.686 72.096)">
            <g id="Grupo_3962" class="cls-7" data-name="Grupo 3962" transform="translate(-240.774 -140.565)">
                <path id="Caminho_1399" d="M416-643.943h14.056V-658H416z" class="cls-8" data-name="Caminho 1399" transform="translate(-177.493 796.298)"/>
            </g>
        </g>
        <g id="Grupo_3965" class="cls-40" data-name="Grupo 3965" transform="translate(182.195 72.096)">
            <g id="Grupo_3964" class="cls-7" data-name="Grupo 3964" transform="translate(-255.284 -140.565)">
                <path id="Caminho_1402" d="M448-643.943h14.056V-658H448z" class="cls-8" data-name="Caminho 1402" transform="translate(-194.983 796.298)"/>
            </g>
        </g>
        <g id="Grupo_3967" class="cls-41" data-name="Grupo 3967" transform="translate(196.252 72.096)">
            <g id="Grupo_3966" class="cls-7" data-name="Grupo 3966" transform="translate(-269.34 -140.565)">
                <path id="Caminho_1405" d="M479-643.943h14.056V-658H479z" class="cls-8" data-name="Caminho 1405" transform="translate(-211.927 796.298)"/>
            </g>
        </g>
        <g id="Grupo_3969" class="cls-42" data-name="Grupo 3969" transform="translate(164.965 71.643)">
            <g id="Grupo_3968" class="cls-7" data-name="Grupo 3968" transform="translate(-238.053 -140.111)">
                <path id="Caminho_1408" d="M410-644.037h16.324V-659H410z" class="cls-36" data-name="Caminho 1408" transform="translate(-174.214 796.844)"/>
            </g>
        </g>
        <g id="Grupo_3971" class="cls-43" data-name="Grupo 3971" transform="translate(179.475 71.643)">
            <g id="Grupo_3970" class="cls-7" data-name="Grupo 3970" transform="translate(-252.563 -140.111)">
                <path id="Caminho_1411" d="M442-644.037h16.324V-659H442z" class="cls-36" data-name="Caminho 1411" transform="translate(-191.704 796.844)"/>
            </g>
        </g>
        <g id="Grupo_3973" class="cls-44" data-name="Grupo 3973" transform="translate(193.532 71.643)">
            <g id="Grupo_3972" class="cls-7" data-name="Grupo 3972" transform="translate(-266.62 -140.111)">
                <path id="Caminho_1414" d="M473-644.037h16.324V-659H473z" class="cls-36" data-name="Caminho 1414" transform="translate(-208.647 796.844)"/>
            </g>
        </g>
        <g id="Grupo_3975" class="cls-45" data-name="Grupo 3975" transform="translate(166.779 71.643)">
            <g id="Grupo_3974" class="cls-7" data-name="Grupo 3974" transform="translate(-239.867 -140.111)">
                <path id="Caminho_1417" d="M414-644.037h16.324V-659H414z" class="cls-25" data-name="Caminho 1417" transform="translate(-176.4 796.844)"/>
            </g>
        </g>
        <g id="Grupo_3977" class="cls-46" data-name="Grupo 3977" transform="translate(180.835 71.643)">
            <g id="Grupo_3976" class="cls-7" data-name="Grupo 3976" transform="translate(-253.924 -140.111)">
                <path id="Caminho_1420" d="M445-644.037h16.324V-659H445z" class="cls-25" data-name="Caminho 1420" transform="translate(-193.344 796.844)"/>
            </g>
        </g>
        <g id="Grupo_3979" class="cls-47" data-name="Grupo 3979" transform="translate(194.892 71.643)">
            <g id="Grupo_3978" class="cls-7" data-name="Grupo 3978" transform="translate(-267.98 -140.111)">
                <path id="Caminho_1423" d="M476-644.037h16.324V-659H476z" class="cls-25" data-name="Caminho 1423" transform="translate(-210.287 796.844)"/>
            </g>
        </g>
        <g id="Grupo_3981" class="cls-48" data-name="Grupo 3981" transform="translate(239.782 133.31)">
            <g id="Grupo_3980" class="cls-7" data-name="Grupo 3980" transform="translate(-312.87 -201.779)">
                <path id="Caminho_1426" d="M575-504.863h72.549V-523H575z" class="cls-25" data-name="Caminho 1426" transform="translate(-264.397 722.511)"/>
            </g>
        </g>
        <g id="Grupo_3983" class="cls-49" data-name="Grupo 3983" transform="translate(226.179 114.266)">
            <g id="Grupo_3982" class="cls-7" data-name="Grupo 3982" transform="translate(-299.267 -182.734)">
                <path id="Caminho_1429" d="M545-550.943h14.057V-565H545z" class="cls-25" data-name="Caminho 1429" transform="translate(-248 745.467)"/>
            </g>
        </g>
        <g id="Grupo_3985" class="cls-50" data-name="Grupo 3985" transform="translate(310.518 114.266)">
            <g id="Grupo_3984" class="cls-7" data-name="Grupo 3984" transform="translate(-383.606 -182.734)">
                <path id="Caminho_1432" d="M731-550.943h14.057V-565H731z" class="cls-25" data-name="Caminho 1432" transform="translate(-349.661 745.467)"/>
            </g>
        </g>
        <g id="Grupo_3987" class="cls-51" data-name="Grupo 3987" transform="translate(291.473 186.362)">
            <g id="Grupo_3986" class="cls-7" data-name="Grupo 3986" transform="translate(-364.562 -254.83)">
                <path id="Caminho_1435" d="M689-397.385h8.615V-406H689z" class="cls-8" data-name="Caminho 1435" transform="translate(-326.705 658.563)"/>
            </g>
        </g>
        <g id="Grupo_3989" class="cls-52" data-name="Grupo 3989" transform="translate(300.089 186.362)">
            <g id="Grupo_3988" class="cls-7" data-name="Grupo 3988" transform="translate(-373.177 -254.83)">
                <path id="Caminho_1438" d="M708-397.385h8.615V-406H708z" class="cls-8" data-name="Caminho 1438" transform="translate(-337.09 658.563)"/>
            </g>
        </g>
        <g id="Grupo_3991" class="cls-53" data-name="Grupo 3991" transform="translate(308.25 186.362)">
            <g id="Grupo_3990" class="cls-7" data-name="Grupo 3990" transform="translate(-381.339 -254.83)">
                <path id="Caminho_1441" d="M726-397.385h8.615V-406H726z" class="cls-8" data-name="Caminho 1441" transform="translate(-346.928 658.563)"/>
            </g>
        </g>
        <g id="Grupo_3993" class="cls-54" data-name="Grupo 3993" transform="translate(125.969 161.423)">
            <g id="Grupo_3992" class="cls-7" data-name="Grupo 3992" transform="translate(-199.058 -229.892)">
                <path id="Caminho_1444" d="M324-408.855h34.915V-461H324z" class="cls-25" data-name="Caminho 1444" transform="translate(-127.209 688.624)"/>
            </g>
        </g>
        <g id="Grupo_3995" class="cls-55" data-name="Grupo 3995" transform="translate(395.764 161.423)">
            <g id="Grupo_3994" class="cls-7" data-name="Grupo 3994" transform="translate(-468.852 -229.892)">
                <path id="Caminho_1447" d="M919-408.855h34.914V-461H919z" class="cls-25" data-name="Caminho 1447" transform="translate(-452.415 688.624)"/>
            </g>
        </g>
        <g id="Grupo_3997" class="cls-56" data-name="Grupo 3997" transform="translate(97.403 188.629)">
            <g id="Grupo_3996" class="cls-7" data-name="Grupo 3996" transform="translate(-170.492 -257.098)">
                <path id="Caminho_1450" d="M261-275.852h356.853V-401H261z" class="cls-22" data-name="Caminho 1450" transform="translate(-92.776 655.831)"/>
            </g>
        </g>
        <g id="Grupo_3999" class="cls-57" data-name="Grupo 3999" transform="translate(102.391 191.35)">
            <g id="Grupo_3998" class="cls-7" data-name="Grupo 3998" transform="translate(-175.479 -259.818)">
                <path id="Caminho_1453" d="M272-269.852h356.853V-395H272z" class="cls-31" data-name="Caminho 1453" transform="translate(-98.788 652.551)"/>
            </g>
        </g>
        <g id="Grupo_4001" class="cls-58" data-name="Grupo 4001" transform="translate(102.845 201.325)">
            <g id="Grupo_4000" class="cls-7" data-name="Grupo 4000" transform="translate(-175.933 -269.794)">
                <path id="Caminho_1456" d="M273-257.827h346.878V-373H273z" class="cls-5" data-name="Caminho 1456" transform="translate(-99.334 640.527)"/>
            </g>
        </g>
        <g id="Grupo_4003" class="cls-59" data-name="Grupo 4003" transform="translate(158.617 264.353)">
            <g id="Grupo_4002" class="cls-7" data-name="Grupo 4002" transform="translate(-231.705 -332.821)">
                <path id="Caminho_1459" d="M396-184.576h33.554V-234H396z" class="cls-25" data-name="Caminho 1459" transform="translate(-166.562 564.554)"/>
            </g>
        </g>
        <g id="Grupo_4005" class="cls-60" data-name="Grupo 4005" transform="translate(101.938 230.345)">
            <g id="Grupo_4004" class="cls-7" data-name="Grupo 4004" transform="translate(-175.026 -298.814)">
                <path id="Caminho_1462" d="M271-221.94h106.1V-309H271z" class="cls-25" data-name="Caminho 1462" transform="translate(-98.241 605.547)"/>
            </g>
        </g>
        <g id="Grupo_4007" class="cls-61" data-name="Grupo 4007" transform="translate(142.293 277.956)">
            <g id="Grupo_4006" class="cls-7" data-name="Grupo 4006" transform="translate(-215.382 -346.424)">
                <path id="Caminho_1465" d="M360-168.179h24.939V-204H360z" class="cls-25" data-name="Caminho 1465" transform="translate(-146.886 548.157)"/>
            </g>
        </g>
        <g id="Grupo_4009" class="cls-62" data-name="Grupo 4009" transform="translate(211.215 247.122)">
            <g id="Grupo_4008" class="cls-7" data-name="Grupo 4008" transform="translate(-284.304 -315.591)">
                <path id="Caminho_1468" d="M512-228.017h68.469V-272H512z" class="cls-25" data-name="Caminho 1468" transform="translate(-229.963 585.324)"/>
            </g>
        </g>
        <g id="Grupo_4011" class="cls-63" data-name="Grupo 4011" transform="translate(181.289 244.855)">
            <g id="Grupo_4010" class="cls-7" data-name="Grupo 4010" transform="translate(-254.377 -313.324)">
                <path id="Caminho_1471" d="M446-251.154h39V-277h-39z" class="cls-25" data-name="Caminho 1471" transform="translate(-193.89 588.056)"/>
            </g>
        </g>
        <g id="Grupo_4013" class="cls-64" data-name="Grupo 4013" transform="translate(234.794 269.794)">
            <g id="Grupo_4012" class="cls-7" data-name="Grupo 4012" transform="translate(-307.882 -338.263)">
                <path id="Caminho_1474" d="M564-179.377h24.032V-222H564z" class="cls-25" data-name="Caminho 1474" transform="translate(-258.385 557.995)"/>
            </g>
        </g>
        <g id="Grupo_4015" class="cls-65" data-name="Grupo 4015" transform="translate(328.655 240.774)">
            <g id="Grupo_4014" class="cls-7" data-name="Grupo 4014" transform="translate(-401.743 -309.243)">
                <path id="Caminho_1477" d="M771-214.357h46.7V-286H771z" class="cls-25" data-name="Caminho 1477" transform="translate(-371.524 592.976)"/>
            </g>
        </g>
        <g id="Grupo_4017" class="cls-66" data-name="Grupo 4017" transform="translate(275.15 190.443)">
            <g id="Grupo_4016" class="cls-7" data-name="Grupo 4016" transform="translate(-348.238 -258.911)">
                <path id="Caminho_1480" d="M653-270.038h185.455V-397H653z" class="cls-25" data-name="Caminho 1480" transform="translate(-307.029 653.644)"/>
            </g>
        </g>
        <g id="Grupo_4019" class="cls-67" data-name="Grupo 4019" transform="translate(360.849 261.632)">
            <g id="Grupo_4018" class="cls-7" data-name="Grupo 4018" transform="translate(-433.937 -330.101)">
                <path id="Caminho_1483" d="M842-189.215h34.008V-240H842z" class="cls-25" data-name="Caminho 1483" transform="translate(-410.33 567.834)"/>
            </g>
        </g>
        <g id="Grupo_4021" class="cls-68" data-name="Grupo 4021" transform="translate(290.567 225.357)">
            <g id="Grupo_4020" class="cls-7" data-name="Grupo 4020" transform="translate(-363.655 -293.826)">
                <path id="Caminho_1486" d="M687-234.3h55.773V-320H687z" class="cls-25" data-name="Caminho 1486" transform="translate(-325.612 611.559)"/>
            </g>
        </g>
        <g id="Grupo_4023" class="cls-69" data-name="Grupo 4023" transform="translate(393.497 273.421)">
            <g id="Grupo_4022" class="cls-7" data-name="Grupo 4022" transform="translate(-466.585 -341.89)">
                <path id="Caminho_1489" d="M914-175h26.753v-39H914z" class="cls-25" data-name="Caminho 1489" transform="translate(-449.683 553.623)"/>
            </g>
        </g>
    </g>
</svg>
